<svg xmlns="http://www.w3.org/2000/svg" xmlns:svg="http://www.w3.org/2000/svg" xmlns:xlink="http://www.w3.org/1999/xlink" width="225" height="52"><g class="layer"><title>Layer 1</title><text id="svg_4" x="133.5" y="35.906" fill="#fff" stroke-width="0" font-family="Helvetica" font-size="26" text-anchor="middle" xml:space="preserve">vue-dock-menu</text><use id="svg_7" x="-87.301" y="9.816" transform="matrix(0.677566 0 0 0.677566 4.69751 1.09655)" xlink:href="#svg_6"/></g><defs><symbol xmlns="http://www.w3.org/2000/svg" id="svg_6" viewBox="0 0 512 512"><g id="svg_1"><path id="svg_2" fill="#17799c" d="m77.311,251.631l-30.036,0c0.333,41.83 11.118,81.455 32.087,117.804c16.875,29.252 40.311,56.364 69.657,80.582c49.539,40.882 106.981,61.983 106.981,61.983l10.378,-39.185l-10.378,-42.935c-25.821,-7.766 -176.747,-76.174 -178.689,-178.249z"/><path id="svg_3" fill="#12617c" d="m434.689,251.631c-1.923,104.359 -152.69,170.864 -178.689,178.249l0,82.12s55.555,-20.024 105.723,-60.463c29.721,-23.958 53.455,-51.036 70.543,-80.481c21.218,-36.561 32.129,-76.731 32.458,-119.425l-30.035,0z"/><g id="svg_5"><path id="svg_9" fill="#0b495d" d="m224.909,213.731l-10.484,199.415l41.575,-0.143l10.378,-88.402l-10.378,-110.871l-31.091,0.001z"/><path id="svg_10" fill="#07303d" d="m284.942,213.729l-28.942,0.001l0,199.273l39.442,-0.136l-10.5,-199.138z"/></g><g id="svg_11"><path id="svg_12" fill="#12617c" d="m234.492,51.514c0,-11.86 9.648,-21.508 21.508,-21.508l5.754,-16.933l-5.754,-13.073c-28.405,0 -51.514,23.109 -51.514,51.514c0,23.188 15.402,42.84 36.511,49.28l0,73.315l15.003,0l5.754,-44.54l-5.754,-56.546c-11.86,0 -21.508,-9.649 -21.508,-21.509z"/><path id="svg_13" fill="#0b495d" d="m256,0l0,30.006c11.86,0 21.508,9.648 21.508,21.508s-9.648,21.509 -21.508,21.509l0,101.086l15.003,0l0,-73.315c21.109,-6.439 36.511,-26.092 36.511,-49.28c0,-28.405 -23.109,-51.514 -51.514,-51.514z"/></g><path id="svg_14" fill="#12617c" d="m77.311,251.631l-29.905,0c5.276,22.799 13.946,44.725 25.971,65.571c16.875,29.252 40.311,56.364 69.657,80.582c49.539,40.882 112.966,61.983 112.966,61.983l10.378,-25.263l-10.378,-23.508c-25.821,-7.765 -176.747,-57.29 -178.689,-159.365z"/><path id="svg_15" fill="#0b495d" d="m434.689,251.631c-1.923,104.359 -152.69,151.98 -178.689,159.365l0,48.771s61.542,-20.024 111.71,-60.463c29.721,-23.958 53.455,-51.036 70.543,-80.481c12.317,-21.224 21.153,-43.666 26.47,-67.111c0,-0.027 0.001,-0.054 0.001,-0.081l-30.035,0z"/><g id="svg_16"><path id="svg_17" fill="#17799c" d="m162.393,168.302l0,29.383l93.607,10.418l5.754,-27.391l-5.754,-12.41l-93.607,0z"/></g><path id="svg_18" fill="#12617c" d="m349.607,168.302l-93.607,0l0,39.801l93.607,-10.418l0,-29.383z"/><g id="svg_19"><path id="svg_20" fill="#12617c" d="m162.393,197.685l0,31.651l93.607,0l10.378,-15.606l-10.378,-16.045l-93.607,0z"/></g><path id="svg_21" fill="#0b495d" d="m256,197.685l93.607,0l0,31.651l-93.607,0l0,-31.651z"/></g></symbol></defs></svg>