<?xml version="1.0"?>
<svg width="225" height="52" xmlns="http://www.w3.org/2000/svg" xmlns:svg="http://www.w3.org/2000/svg" xmlns:xlink="http://www.w3.org/1999/xlink">
 <g class="layer">
  <title>Layer 1</title>
  <text fill="#ffffff" font-family="Helvetica" font-size="26" id="svg_4" stroke-width="0" text-anchor="middle" x="133.5" xml:space="preserve" y="35.90625">vue-dock-menu</text>
  <g id="svg_8"/>
  <use id="svg_7" transform="matrix(0.677566 0 0 0.677566 4.69751 1.09655)" x="-87.30064" xlink:href="#svg_6" y="9.815586"/>
 </g>
 <defs>
  <symbol id="svg_6" viewBox="0 0 512 512" xmlns="http://www.w3.org/2000/svg">
   <g id="svg_1">
    <path d="m77.311,251.631l-30.036,0c0.333,41.83 11.118,81.455 32.087,117.804c16.875,29.252 40.311,56.364 69.657,80.582c49.539,40.882 106.981,61.983 106.981,61.983l10.378,-39.185l-10.378,-42.935c-25.821,-7.766 -176.747,-76.174 -178.689,-178.249z" fill="#17799c" id="svg_2"/>
    <path d="m434.689,251.631c-1.923,104.359 -152.69,170.864 -178.689,178.249l0,82.12s55.555,-20.024 105.723,-60.463c29.721,-23.958 53.455,-51.036 70.543,-80.481c21.218,-36.561 32.129,-76.731 32.458,-119.425l-30.035,0z" fill="#12617c" id="svg_3"/>
    <g id="svg_5">
     <path d="m224.909,213.731l-10.484,199.415l41.575,-0.143l10.378,-88.402l-10.378,-110.871l-31.091,0.001z" fill="#0b495d" id="svg_9"/>
     <path d="m284.942,213.729l-28.942,0.001l0,199.273l39.442,-0.136l-10.5,-199.138z" fill="#07303d" id="svg_10"/>
    </g>
    <g id="svg_11">
     <path d="m234.492,51.514c0,-11.86 9.648,-21.508 21.508,-21.508l5.754,-16.933l-5.754,-13.073c-28.405,0 -51.514,23.109 -51.514,51.514c0,23.188 15.402,42.84 36.511,49.28l0,73.315l15.003,0l5.754,-44.54l-5.754,-56.546c-11.86,0 -21.508,-9.649 -21.508,-21.509z" fill="#12617c" id="svg_12"/>
     <path d="m256,0l0,30.006c11.86,0 21.508,9.648 21.508,21.508s-9.648,21.509 -21.508,21.509l0,101.086l15.003,0l0,-73.315c21.109,-6.439 36.511,-26.092 36.511,-49.28c0,-28.405 -23.109,-51.514 -51.514,-51.514z" fill="#0b495d" id="svg_13"/>
    </g>
    <path d="m77.311,251.631l-29.905,0c5.276,22.799 13.946,44.725 25.971,65.571c16.875,29.252 40.311,56.364 69.657,80.582c49.539,40.882 112.966,61.983 112.966,61.983l10.378,-25.263l-10.378,-23.508c-25.821,-7.765 -176.747,-57.29 -178.689,-159.365z" fill="#12617c" id="svg_14"/>
    <path d="m434.689,251.631c-1.923,104.359 -152.69,151.98 -178.689,159.365l0,48.771s61.542,-20.024 111.71,-60.463c29.721,-23.958 53.455,-51.036 70.543,-80.481c12.317,-21.224 21.153,-43.666 26.47,-67.111c0,-0.027 0.001,-0.054 0.001,-0.081l-30.035,0z" fill="#0b495d" id="svg_15"/>
    <g id="svg_16">
     <path d="m162.393,168.302l0,29.383l93.607,10.418l5.754,-27.391l-5.754,-12.41l-93.607,0z" fill="#17799c" id="svg_17"/>
    </g>
    <path d="m349.607,168.302l-93.607,0l0,39.801l93.607,-10.418l0,-29.383z" fill="#12617c" id="svg_18"/>
    <g id="svg_19">
     <path d="m162.393,197.685l0,31.651l93.607,0l10.378,-15.606l-10.378,-16.045l-93.607,0z" fill="#12617c" id="svg_20"/>
    </g>
    <path d="m256,197.685l93.607,0l0,31.651l-93.607,0l0,-31.651z" fill="#0b495d" id="svg_21"/>
   </g>
  </symbol>
 </defs>
</svg>